# xmcd CD database file
#
# Track frame offsets:
#	150
#	16329
#	42349
#
# Disc length: 893 seconds
#
# Revision: 0
# Processed by: cddbd v1.5.1PL0 Copyright (c) Steve Scherf et al.
# Submitted via: CDex 1.51
#
DISCID=1b037b03
DTITLE=小山卓治 - 手首
DYEAR=2000
DGENRE=JPop
TTITLE0=手首
TTITLE1=青空とダイヤモンド
TTITLE2=光のオルガン
EXTD=YEAR: 2000
EXTT0=
EXTT1=
EXTT2=
PLAYORDER=
